<?xml version="1.0" encoding="utf-8"?>
<!-- Generator: Adobe Illustrator 19.2.1, SVG Export Plug-In . SVG Version: 6.00 Build 0)  -->
<svg version="1.1" id="Layer_1" xmlns="http://www.w3.org/2000/svg" xmlns:xlink="http://www.w3.org/1999/xlink" x="0px" y="0px"
	 width="864px" height="864px" viewBox="0 0 864 864" enable-background="new 0 0 864 864" xml:space="preserve">
<metadata><?xpacket begin="﻿" id="W5M0MpCehiHzreSzNTczkc9d"?>
<x:xmpmeta xmlns:x="adobe:ns:meta/" x:xmptk="Adobe XMP Core 5.6-c111 79.158366, 2015/09/25-01:12:00        ">
   <rdf:RDF xmlns:rdf="http://www.w3.org/1999/02/22-rdf-syntax-ns#">
      <rdf:Description rdf:about=""
            xmlns:dc="http://purl.org/dc/elements/1.1/"
            xmlns:xmp="http://ns.adobe.com/xap/1.0/"
            xmlns:xmpGImg="http://ns.adobe.com/xap/1.0/g/img/"
            xmlns:xmpMM="http://ns.adobe.com/xap/1.0/mm/"
            xmlns:stRef="http://ns.adobe.com/xap/1.0/sType/ResourceRef#"
            xmlns:stEvt="http://ns.adobe.com/xap/1.0/sType/ResourceEvent#"
            xmlns:illustrator="http://ns.adobe.com/illustrator/1.0/"
            xmlns:xmpTPg="http://ns.adobe.com/xap/1.0/t/pg/"
            xmlns:stDim="http://ns.adobe.com/xap/1.0/sType/Dimensions#"
            xmlns:xmpG="http://ns.adobe.com/xap/1.0/g/"
            xmlns:pdf="http://ns.adobe.com/pdf/1.3/">
         <dc:format>image/svg+xml</dc:format>
         <dc:description>
            <rdf:Alt>
               <rdf:li xml:lang="x-default">Files are subject to copyright to Free SVG Designs.</rdf:li>
            </rdf:Alt>
         </dc:description>
         <dc:rights>
            <rdf:Alt>
               <rdf:li xml:lang="x-default">Files are subject to copyright to Free SVG Designs.</rdf:li>
            </rdf:Alt>
         </dc:rights>
         <xmp:MetadataDate>2018-05-11T15:43:42+10:00</xmp:MetadataDate>
         <xmp:ModifyDate>2018-05-11T15:43:42+10:00</xmp:ModifyDate>
         <xmp:CreateDate>2018-05-11T15:43:42+10:00</xmp:CreateDate>
         <xmp:CreatorTool>Adobe Illustrator CC 2015 (Windows)</xmp:CreatorTool>
         <xmp:Thumbnails>
            <rdf:Alt>
               <rdf:li rdf:parseType="Resource">
                  <xmpGImg:width>256</xmpGImg:width>
                  <xmpGImg:height>60</xmpGImg:height>
                  <xmpGImg:format>JPEG</xmpGImg:format>
                  <xmpGImg:image>/9j/4AAQSkZJRgABAgEASABIAAD/7QAsUGhvdG9zaG9wIDMuMAA4QklNA+0AAAAAABAASAAAAAEA&#xA;AQBIAAAAAQAB/+4ADkFkb2JlAGTAAAAAAf/bAIQABgQEBAUEBgUFBgkGBQYJCwgGBggLDAoKCwoK&#xA;DBAMDAwMDAwQDA4PEA8ODBMTFBQTExwbGxscHx8fHx8fHx8fHwEHBwcNDA0YEBAYGhURFRofHx8f&#xA;Hx8fHx8fHx8fHx8fHx8fHx8fHx8fHx8fHx8fHx8fHx8fHx8fHx8fHx8fHx8f/8AAEQgAPAEAAwER&#xA;AAIRAQMRAf/EAaIAAAAHAQEBAQEAAAAAAAAAAAQFAwIGAQAHCAkKCwEAAgIDAQEBAQEAAAAAAAAA&#xA;AQACAwQFBgcICQoLEAACAQMDAgQCBgcDBAIGAnMBAgMRBAAFIRIxQVEGE2EicYEUMpGhBxWxQiPB&#xA;UtHhMxZi8CRygvElQzRTkqKyY3PCNUQnk6OzNhdUZHTD0uIIJoMJChgZhJRFRqS0VtNVKBry4/PE&#xA;1OT0ZXWFlaW1xdXl9WZ2hpamtsbW5vY3R1dnd4eXp7fH1+f3OEhYaHiImKi4yNjo+Ck5SVlpeYmZ&#xA;qbnJ2en5KjpKWmp6ipqqusra6voRAAICAQIDBQUEBQYECAMDbQEAAhEDBCESMUEFURNhIgZxgZEy&#xA;obHwFMHR4SNCFVJicvEzJDRDghaSUyWiY7LCB3PSNeJEgxdUkwgJChgZJjZFGidkdFU38qOzwygp&#xA;0+PzhJSktMTU5PRldYWVpbXF1eX1RlZmdoaWprbG1ub2R1dnd4eXp7fH1+f3OEhYaHiImKi4yNjo&#xA;+DlJWWl5iZmpucnZ6fkqOkpaanqKmqq6ytrq+v/aAAwDAQACEQMRAD8A9U4q7FXYq7FUv1XzH5e0&#xA;cxDVtUtNOM1TCLueKAuFpy4+oy1pUVpiqJsr+xv7cXFjcxXVu2yzQOsiEjwZSRiqvirsVdirTuka&#xA;NJIwREBZ3Y0AA3JJOKvOfNf/ADkR+UPlovFd6/De3Sf8eunA3b1HVS0VYlPszjFXkXmT/nN60UtH&#xA;5a8sySD9i51KZY6fOCESf8ncVeba3/zlv+cuo8ha3tppKNUcbK1Q7Hwa5+sMPmDirC9T/Ob82NSL&#xA;fW/NuqcW+0kV1JAh/wBhCY1/DFWO3XmTzFdvzutUu7h6k8pZ5XNW3JqzHriqXYq7FUxtfMnmK0fn&#xA;a6pd271B5RTyoaruDVWHTFWRab+c/wCbGmlfqvm3VKLTik11JOgp2CTGRafRirNdE/5y5/OTTiv1&#xA;u7s9XRaDjeWqKSB/lW31c4q9I8t/85vWjFY/MvlmSMft3OmzLJX5QTCP/k7ir13yn/zkN+UXmYrF&#xA;aa/DZ3bf8euog2j18A0tImPsjnFXoyOkiLJGwdHAZHU1BB3BBGKt4q7FXYqh77UdP0+3Nzf3MVpb&#xA;rs007rGgPuzkDFUNpXmPy9rDSLpOqWmotCAZltJ4pygatC3ps1K074qmOKuxV2KuxV2KuxVhX5l/&#xA;m95L/LvTvrGu3XK9lUmz0qCj3U3uqVHFPF2IX6dsVfI3nH/nI/8ANzz3rMdh5fmuNGt55BHY6VpD&#xA;OLl2boGnQLM7f6vFf8nFUn89a/qWmeTf8G6zrU3mDzFc3sd/qrS3D3kOm+gjxpawyOzqZ3MhM7R7&#xA;CipU70VY5+XH5leZ/IHmCHV9EuGCBh9dsGY+hcxDrHKvTp9luqncYq/RXyt5k03zN5c07X9NblY6&#xA;lAlxDX7S8hujU/aRqq3uMVSXzt+bX5e+Skb/ABDrUFtcgVWwQma6avSkEfJwD4sAPfFXz352/wCc&#xA;172QyW/kvRFgj6LqGpnnIfcW8TBVPhWRvlirwbzf+aHn/wA4SE+Ytcub6ImotS3p24P+TBGEiH/A&#xA;4qxbFXYq7FXYq7FXYq7FXYq7FXYq7FXYqyryf+aP5geTnX/DuuXVlCrcjac/Utie5aCTnEa+PGuK&#xA;vePJP/Oa97GY7fzpoizx9G1DTDwkHubeVirHxpIvyxV9CeSfzY/L7ztGD5d1mC5uKVexcmG6XxrD&#xA;Jxeg8QCPfFU581+ZNN8seW9R1/Un4WWmwPcS+LcR8KLX9p2oq+5xV+dX5jfmR5l8/eYZtY1u4ZgW&#xA;b6lZBiYbaImojiXp06t1bqcVZL5F8w6nqXk0eTtE1qby95jtb2S+0xobl7KHUvWREa1mlR41Fwhj&#xA;rA0mxqUqDSqqb+UP+cj/AM3fIutPYeYJ7jWILeT077StXLm4QrswWdwZo3/1uQ9sVfXP5afm/wCS&#xA;vzD0/wCsaFd8b6JeV3pU9Euoe1SlTyTf7a1X6dsVZrirsVeZax/zkp+S+lo/q+YkuJk2+r20NxM5&#xA;I/Z+GPiD/rMMVeK/mJ/zmdqN3HJZeRNONhGwK/pW/CPPv3igUvGh93ZvkMVfNuq6tqmr6hPqWqXU&#xA;t7f3Lc57qdzJI7dN2apxV7p5W8kadB+Senav5c816T5f81eYZLpdUn1a7jsp5LWCRoTaWczmsa/Z&#xA;aWg+PkKsFouKvO2/K60tHJ1bzp5cs4F3Z4LyTUGI2+yljFcEnfvTFXel+TmjAlptV823a7qkaR6T&#xA;Yk+7ubq5cD/Vj+YxVF6h+e/ns6JF5d8uzJ5V8uQchBpukmSMgOxduVzK8tySxYlv3gBr0xV55LLJ&#xA;LI0srtJI5LO7EliT1JJ64qsxV2KuxV2KuxV2KuxV2KuxV2KuxV2KuxV2KuxV2Kr4pZIpFlido5EI&#xA;ZHUkMCOhBHTFXoen/nx56/Qkvl3zFMnmry5ccBPpurGR2IRgy8bmN47hSCoK1cgEdMVQhi/JvWTy&#xA;jn1byldNuY5Uj1eyHsJE+qXKD5pJ88VaT8rrW7f/AHFedPLl3CfsvPePp7U3+0l9FbEHbpvir0Pz&#xA;b5KsZfySv9X8w+adI8xea/L0tomlzaVeRXk8dpcSpD9Vu5kNZVALPFUVTiQrcdgq8N0rVtU0jUIN&#xA;S0u6lsr+2bnBdQOY5Ebpsy0OKvpP8u/+cz760hisfPWnNfqg4/pawCJMfeS3YpGx8SrL/q4q9o0j&#xA;/nJX8l9USP0vMSQTSbfV7mC4icMf2fij4k/6rHFXzv8A85XflDL5b8zv5w0qA/oLXJC14EHw2981&#xA;S4NOizfbX/K5DwxV4DirsVZ1aU1f8nb+3PxXPlbVor2KvUWmqx/V5+Pss9tBX/WxVguKuxV2KuxV&#xA;2KuxV2KuxV2KuxV2KuxV2KuxV2KuxV2KuxV2KuxV2KuxV2KuxVnN7TSfye062G1z5o1Wa+mpsTa6&#xA;XH9Wgqe4ae5n/wCBxVg2KuxV7/8A84oflDL5j8zJ5x1WD/cDocnKzDj4bi+WhSnisNeZP83EeOKv&#xA;sbXdC0jX9IutH1i1S9029Qx3FvIKqyn8QQdwRuDuN8VfEH54/wDOOWsfl4suuafcpf8AlR5Vjjld&#xA;lS5gMh+COVDQP4B069wuKvGcVZz+UR+ua/qHlpqFPNGmXelxg7j6yU+sWe3j9at4h9OKsHIINDsR&#xA;irWKuxV2KuxV2KuxV2KuxV2KuxV2KuxV2KuxV2KuxV2KuxV2KuxV2KuxVsAk0G5OKs4/N7/QvMNj&#xA;5aU/B5X0200tx2+sqnr3m3/MVPIMVYNir2f8jv8AnHLV/wAwlh13UblLDyosrRySRsGup2jPxJEg&#xA;qE8Cz9OwbFX2/oWhaToOkWuj6RapZ6bZRiK2toxRVUb99ySTVidydzviqOxV86/85saylv5E0PSA&#xA;1Jb/AFI3HH+aO1hcN/w86Yq+NcVR2iatdaNrVhq9oaXWnXEV1Aen7yFxIvT3XFU//NXSLbS/P+rx&#xA;2Qppt5KNR000oDaX6LdQU8QI5gv0YqxLFXYq7FXYqvhhmnlSGFGllkIVI0BZmJ6AAbnFXpXlb/nG&#xA;/wDOHzFweHQZNOtnp/pOpMLRQD39N/3xH+qhxV6x5e/5wgu2Cv5j8zxxn9q306BpK+NJpjH/AMm8&#xA;VeiaN/ziF+Tmnhfrdvfasw6m7umQE/K1FvirM9O/I/8AKHTwBb+UdMenQ3Futyfvn9Q4qyK08o+V&#xA;LMg2ei2FsVqV9G2hShOxpxUdcVTGC0tbfl9Xhjh5U5emoWtOlaD3xV09pa3HH6xDHNxrx9RQ1K9a&#xA;VHtiqXXflHypeEm80WwuS1C3rW0L1I2FeSnpirHdR/I/8odQBFx5R0xK9Tb262x++D0zirDNa/5x&#xA;C/J3UFb6nb32kMfsm0umcA/K5FxirzrzF/zhBeKrSeW/M0crfs2+owNGPpmhMn/JrFXlHmn/AJxw&#xA;/OHy6Hkm0GTULZf+PjTSLsH39OP98B80GKvNZoZoJXhmRopYyVeNwVZSOoIO4xVZirsVdirsVZb+&#xA;VOk2up/mBo6XwrptnK2o6ltUfVbBGu56+xjhIxVj+tardaxrN/q12eV1qNxLd3DeMk7mRz/wTYqg&#xA;sVfZX/OE+tLceQ9b0ctWXT9RE/HbaO6hUL/w8D4q+isVdir5A/5y10P8y/MHnq2Nv5cvrjy9ptsI&#xA;tOurWFrqOR5TzmkYwh/TYtROL70WvfFXkGhfkp+bGuTrDYeVdRHLpNcwNaQ+H97cekm3zxV7z+W3&#xA;/OGUcckV/wCf75ZgKMNGsGIUnrSa4IU/NYwP9fFUP/zlv+UAtdO0jzX5csAmnaVappmo20CkiG3i&#xA;/wB5paCvwLyZGbt8OKvljFXYqzfyV+S/5lecmjbRNEnNm9P9yNwPq9qAe4lk4h6eCcj7Yq+hPIv/&#xA;ADhZotqI7rzpqr6hOKFtO0+sNv8A6rTMPVcf6oTFXvHlX8vfJHlOIR+XdEtNNNOLTRRgzMPB5m5S&#xA;v/smOKshxV2KuxV2KuxV2KuxV2KuxV2KuxV2Kse81fl75I82RGPzFolpqRpxWaWMCZR4JMvGVP8A&#xA;YsMVeD+ev+cLNFuRJc+S9WfT5jUrp+oVmgJ8FmUeqg/1lfFXz151/Jj8yvJryHW9DnWzjr/uRt1+&#xA;sWpHiZY+SpXweh9sVYTirsVfVH/OJH5QLc6bq/mvzHYc9P1W2fTNOtp1PGa2l/3pl4n9lqKit/rY&#xA;qr/mT/zhlFLLLqHkC+WAGrfoW/ZigNa8Ybj4mAp0WQH3fFXg2u/kp+bGhztDf+VdRPHrNbQNdw+H&#xA;97b+qm/zxV7B/wA4laD+Znl/zxctceXL638u6lbNDqF1dxNapG8R5wyL6wQyENVOKV+0T2xV9fYq&#xA;7FXYq7FXYqtm9L0n9bj6XE+pzpx4035V2pTFXg/mv/oT79JP+l/0J9c5H1fqHqceX7XL6j8Fa9a4&#xA;qyLyJ/0LR9Yj/wAKf4e+vbelX0frf+x+sfv/AJ0+nFXrGKuxV2KuxV2KuxV2KuxV2KuxV2KuxV2K&#xA;uxV2KuxV2KuxV5N56/6Fn9eT/FX+Hfr3xetT0frfvy+r/vuvjirHvKn/AEJ9+kk/RH6E+uch6X1/&#xA;1OPL9nj9e+CtelMVe8Q+l6Sejx9LiPT4U48abcabUpiq7FXYq7FXYq//2Q==</xmpGImg:image>
               </rdf:li>
            </rdf:Alt>
         </xmp:Thumbnails>
         <xmpMM:InstanceID>xmp.iid:496f47b8-5f38-9040-9db4-b89083ceaf13</xmpMM:InstanceID>
         <xmpMM:DocumentID>xmp.did:496f47b8-5f38-9040-9db4-b89083ceaf13</xmpMM:DocumentID>
         <xmpMM:OriginalDocumentID>uuid:5D20892493BFDB11914A8590D31508C8</xmpMM:OriginalDocumentID>
         <xmpMM:RenditionClass>proof:pdf</xmpMM:RenditionClass>
         <xmpMM:DerivedFrom rdf:parseType="Resource">
            <stRef:instanceID>xmp.iid:086002b2-30cd-e54a-b84f-90b105fa33d9</stRef:instanceID>
            <stRef:documentID>xmp.did:086002b2-30cd-e54a-b84f-90b105fa33d9</stRef:documentID>
            <stRef:originalDocumentID>uuid:5D20892493BFDB11914A8590D31508C8</stRef:originalDocumentID>
            <stRef:renditionClass>proof:pdf</stRef:renditionClass>
         </xmpMM:DerivedFrom>
         <xmpMM:History>
            <rdf:Seq>
               <rdf:li rdf:parseType="Resource">
                  <stEvt:action>saved</stEvt:action>
                  <stEvt:instanceID>xmp.iid:1cb41bf2-2a1c-1b44-936d-43034feea97a</stEvt:instanceID>
                  <stEvt:when>2018-05-11T15:34:41+10:00</stEvt:when>
                  <stEvt:softwareAgent>Adobe Illustrator CC 2015 (Windows)</stEvt:softwareAgent>
                  <stEvt:changed>/</stEvt:changed>
               </rdf:li>
               <rdf:li rdf:parseType="Resource">
                  <stEvt:action>saved</stEvt:action>
                  <stEvt:instanceID>xmp.iid:496f47b8-5f38-9040-9db4-b89083ceaf13</stEvt:instanceID>
                  <stEvt:when>2018-05-11T15:43:42+10:00</stEvt:when>
                  <stEvt:softwareAgent>Adobe Illustrator CC 2015 (Windows)</stEvt:softwareAgent>
                  <stEvt:changed>/</stEvt:changed>
               </rdf:li>
            </rdf:Seq>
         </xmpMM:History>
         <illustrator:StartupProfile>Print</illustrator:StartupProfile>
         <xmpTPg:HasVisibleOverprint>False</xmpTPg:HasVisibleOverprint>
         <xmpTPg:HasVisibleTransparency>False</xmpTPg:HasVisibleTransparency>
         <xmpTPg:NPages>1</xmpTPg:NPages>
         <xmpTPg:MaxPageSize rdf:parseType="Resource">
            <stDim:w>12.000000</stDim:w>
            <stDim:h>12.000000</stDim:h>
            <stDim:unit>Inches</stDim:unit>
         </xmpTPg:MaxPageSize>
         <xmpTPg:PlateNames>
            <rdf:Seq>
               <rdf:li>Cyan</rdf:li>
               <rdf:li>Magenta</rdf:li>
               <rdf:li>Yellow</rdf:li>
               <rdf:li>Black</rdf:li>
            </rdf:Seq>
         </xmpTPg:PlateNames>
         <xmpTPg:SwatchGroups>
            <rdf:Seq>
               <rdf:li rdf:parseType="Resource">
                  <xmpG:groupName>Default Swatch Group</xmpG:groupName>
                  <xmpG:groupType>0</xmpG:groupType>
                  <xmpG:Colorants>
                     <rdf:Seq>
                        <rdf:li rdf:parseType="Resource">
                           <xmpG:swatchName>White</xmpG:swatchName>
                           <xmpG:mode>RGB</xmpG:mode>
                           <xmpG:type>PROCESS</xmpG:type>
                           <xmpG:red>255</xmpG:red>
                           <xmpG:green>255</xmpG:green>
                           <xmpG:blue>255</xmpG:blue>
                        </rdf:li>
                        <rdf:li rdf:parseType="Resource">
                           <xmpG:swatchName>Black</xmpG:swatchName>
                           <xmpG:mode>RGB</xmpG:mode>
                           <xmpG:type>PROCESS</xmpG:type>
                           <xmpG:red>29</xmpG:red>
                           <xmpG:green>29</xmpG:green>
                           <xmpG:blue>27</xmpG:blue>
                        </rdf:li>
                        <rdf:li rdf:parseType="Resource">
                           <xmpG:swatchName>CMYK Red</xmpG:swatchName>
                           <xmpG:mode>RGB</xmpG:mode>
                           <xmpG:type>PROCESS</xmpG:type>
                           <xmpG:red>227</xmpG:red>
                           <xmpG:green>6</xmpG:green>
                           <xmpG:blue>19</xmpG:blue>
                        </rdf:li>
                        <rdf:li rdf:parseType="Resource">
                           <xmpG:swatchName>CMYK Yellow</xmpG:swatchName>
                           <xmpG:mode>RGB</xmpG:mode>
                           <xmpG:type>PROCESS</xmpG:type>
                           <xmpG:red>255</xmpG:red>
                           <xmpG:green>237</xmpG:green>
                           <xmpG:blue>0</xmpG:blue>
                        </rdf:li>
                        <rdf:li rdf:parseType="Resource">
                           <xmpG:swatchName>CMYK Green</xmpG:swatchName>
                           <xmpG:mode>RGB</xmpG:mode>
                           <xmpG:type>PROCESS</xmpG:type>
                           <xmpG:red>0</xmpG:red>
                           <xmpG:green>150</xmpG:green>
                           <xmpG:blue>64</xmpG:blue>
                        </rdf:li>
                        <rdf:li rdf:parseType="Resource">
                           <xmpG:swatchName>CMYK Cyan</xmpG:swatchName>
                           <xmpG:mode>RGB</xmpG:mode>
                           <xmpG:type>PROCESS</xmpG:type>
                           <xmpG:red>0</xmpG:red>
                           <xmpG:green>159</xmpG:green>
                           <xmpG:blue>227</xmpG:blue>
                        </rdf:li>
                        <rdf:li rdf:parseType="Resource">
                           <xmpG:swatchName>CMYK Blue</xmpG:swatchName>
                           <xmpG:mode>RGB</xmpG:mode>
                           <xmpG:type>PROCESS</xmpG:type>
                           <xmpG:red>49</xmpG:red>
                           <xmpG:green>39</xmpG:green>
                           <xmpG:blue>131</xmpG:blue>
                        </rdf:li>
                        <rdf:li rdf:parseType="Resource">
                           <xmpG:swatchName>CMYK Magenta</xmpG:swatchName>
                           <xmpG:mode>RGB</xmpG:mode>
                           <xmpG:type>PROCESS</xmpG:type>
                           <xmpG:red>230</xmpG:red>
                           <xmpG:green>0</xmpG:green>
                           <xmpG:blue>126</xmpG:blue>
                        </rdf:li>
                        <rdf:li rdf:parseType="Resource">
                           <xmpG:swatchName>C=15 M=100 Y=90 K=10</xmpG:swatchName>
                           <xmpG:mode>RGB</xmpG:mode>
                           <xmpG:type>PROCESS</xmpG:type>
                           <xmpG:red>190</xmpG:red>
                           <xmpG:green>22</xmpG:green>
                           <xmpG:blue>34</xmpG:blue>
                        </rdf:li>
                        <rdf:li rdf:parseType="Resource">
                           <xmpG:swatchName>C=0 M=90 Y=85 K=0</xmpG:swatchName>
                           <xmpG:mode>RGB</xmpG:mode>
                           <xmpG:type>PROCESS</xmpG:type>
                           <xmpG:red>230</xmpG:red>
                           <xmpG:green>51</xmpG:green>
                           <xmpG:blue>42</xmpG:blue>
                        </rdf:li>
                        <rdf:li rdf:parseType="Resource">
                           <xmpG:swatchName>C=0 M=80 Y=95 K=0</xmpG:swatchName>
                           <xmpG:mode>RGB</xmpG:mode>
                           <xmpG:type>PROCESS</xmpG:type>
                           <xmpG:red>233</xmpG:red>
                           <xmpG:green>78</xmpG:green>
                           <xmpG:blue>27</xmpG:blue>
                        </rdf:li>
                        <rdf:li rdf:parseType="Resource">
                           <xmpG:swatchName>C=0 M=50 Y=100 K=0</xmpG:swatchName>
                           <xmpG:mode>RGB</xmpG:mode>
                           <xmpG:type>PROCESS</xmpG:type>
                           <xmpG:red>243</xmpG:red>
                           <xmpG:green>146</xmpG:green>
                           <xmpG:blue>0</xmpG:blue>
                        </rdf:li>
                        <rdf:li rdf:parseType="Resource">
                           <xmpG:swatchName>C=0 M=35 Y=85 K=0</xmpG:swatchName>
                           <xmpG:mode>RGB</xmpG:mode>
                           <xmpG:type>PROCESS</xmpG:type>
                           <xmpG:red>249</xmpG:red>
                           <xmpG:green>178</xmpG:green>
                           <xmpG:blue>51</xmpG:blue>
                        </rdf:li>
                        <rdf:li rdf:parseType="Resource">
                           <xmpG:swatchName>C=5 M=0 Y=90 K=0</xmpG:swatchName>
                           <xmpG:mode>RGB</xmpG:mode>
                           <xmpG:type>PROCESS</xmpG:type>
                           <xmpG:red>252</xmpG:red>
                           <xmpG:green>234</xmpG:green>
                           <xmpG:blue>16</xmpG:blue>
                        </rdf:li>
                        <rdf:li rdf:parseType="Resource">
                           <xmpG:swatchName>C=20 M=0 Y=100 K=0</xmpG:swatchName>
                           <xmpG:mode>RGB</xmpG:mode>
                           <xmpG:type>PROCESS</xmpG:type>
                           <xmpG:red>222</xmpG:red>
                           <xmpG:green>220</xmpG:green>
                           <xmpG:blue>0</xmpG:blue>
                        </rdf:li>
                        <rdf:li rdf:parseType="Resource">
                           <xmpG:swatchName>C=50 M=0 Y=100 K=0</xmpG:swatchName>
                           <xmpG:mode>RGB</xmpG:mode>
                           <xmpG:type>PROCESS</xmpG:type>
                           <xmpG:red>149</xmpG:red>
                           <xmpG:green>193</xmpG:green>
                           <xmpG:blue>31</xmpG:blue>
                        </rdf:li>
                        <rdf:li rdf:parseType="Resource">
                           <xmpG:swatchName>C=75 M=0 Y=100 K=0</xmpG:swatchName>
                           <xmpG:mode>RGB</xmpG:mode>
                           <xmpG:type>PROCESS</xmpG:type>
                           <xmpG:red>58</xmpG:red>
                           <xmpG:green>170</xmpG:green>
                           <xmpG:blue>53</xmpG:blue>
                        </rdf:li>
                        <rdf:li rdf:parseType="Resource">
                           <xmpG:swatchName>C=85 M=10 Y=100 K=10</xmpG:swatchName>
                           <xmpG:mode>RGB</xmpG:mode>
                           <xmpG:type>PROCESS</xmpG:type>
                           <xmpG:red>0</xmpG:red>
                           <xmpG:green>141</xmpG:green>
                           <xmpG:blue>54</xmpG:blue>
                        </rdf:li>
                        <rdf:li rdf:parseType="Resource">
                           <xmpG:swatchName>C=90 M=30 Y=95 K=30</xmpG:swatchName>
                           <xmpG:mode>RGB</xmpG:mode>
                           <xmpG:type>PROCESS</xmpG:type>
                           <xmpG:red>0</xmpG:red>
                           <xmpG:green>102</xmpG:green>
                           <xmpG:blue>51</xmpG:blue>
                        </rdf:li>
                        <rdf:li rdf:parseType="Resource">
                           <xmpG:swatchName>C=75 M=0 Y=75 K=0</xmpG:swatchName>
                           <xmpG:mode>RGB</xmpG:mode>
                           <xmpG:type>PROCESS</xmpG:type>
                           <xmpG:red>47</xmpG:red>
                           <xmpG:green>172</xmpG:green>
                           <xmpG:blue>102</xmpG:blue>
                        </rdf:li>
                        <rdf:li rdf:parseType="Resource">
                           <xmpG:swatchName>C=80 M=10 Y=45 K=0</xmpG:swatchName>
                           <xmpG:mode>RGB</xmpG:mode>
                           <xmpG:type>PROCESS</xmpG:type>
                           <xmpG:red>0</xmpG:red>
                           <xmpG:green>161</xmpG:green>
                           <xmpG:blue>154</xmpG:blue>
                        </rdf:li>
                        <rdf:li rdf:parseType="Resource">
                           <xmpG:swatchName>C=70 M=15 Y=0 K=0</xmpG:swatchName>
                           <xmpG:mode>RGB</xmpG:mode>
                           <xmpG:type>PROCESS</xmpG:type>
                           <xmpG:red>54</xmpG:red>
                           <xmpG:green>169</xmpG:green>
                           <xmpG:blue>225</xmpG:blue>
                        </rdf:li>
                        <rdf:li rdf:parseType="Resource">
                           <xmpG:swatchName>C=85 M=50 Y=0 K=0</xmpG:swatchName>
                           <xmpG:mode>RGB</xmpG:mode>
                           <xmpG:type>PROCESS</xmpG:type>
                           <xmpG:red>29</xmpG:red>
                           <xmpG:green>113</xmpG:green>
                           <xmpG:blue>184</xmpG:blue>
                        </rdf:li>
                        <rdf:li rdf:parseType="Resource">
                           <xmpG:swatchName>C=100 M=95 Y=5 K=0</xmpG:swatchName>
                           <xmpG:mode>RGB</xmpG:mode>
                           <xmpG:type>PROCESS</xmpG:type>
                           <xmpG:red>45</xmpG:red>
                           <xmpG:green>46</xmpG:green>
                           <xmpG:blue>131</xmpG:blue>
                        </rdf:li>
                        <rdf:li rdf:parseType="Resource">
                           <xmpG:swatchName>C=100 M=100 Y=25 K=25</xmpG:swatchName>
                           <xmpG:mode>RGB</xmpG:mode>
                           <xmpG:type>PROCESS</xmpG:type>
                           <xmpG:red>41</xmpG:red>
                           <xmpG:green>35</xmpG:green>
                           <xmpG:blue>92</xmpG:blue>
                        </rdf:li>
                        <rdf:li rdf:parseType="Resource">
                           <xmpG:swatchName>C=75 M=100 Y=0 K=0</xmpG:swatchName>
                           <xmpG:mode>RGB</xmpG:mode>
                           <xmpG:type>PROCESS</xmpG:type>
                           <xmpG:red>102</xmpG:red>
                           <xmpG:green>36</xmpG:green>
                           <xmpG:blue>131</xmpG:blue>
                        </rdf:li>
                        <rdf:li rdf:parseType="Resource">
                           <xmpG:swatchName>C=50 M=100 Y=0 K=0</xmpG:swatchName>
                           <xmpG:mode>RGB</xmpG:mode>
                           <xmpG:type>PROCESS</xmpG:type>
                           <xmpG:red>149</xmpG:red>
                           <xmpG:green>27</xmpG:green>
                           <xmpG:blue>129</xmpG:blue>
                        </rdf:li>
                        <rdf:li rdf:parseType="Resource">
                           <xmpG:swatchName>C=35 M=100 Y=35 K=10</xmpG:swatchName>
                           <xmpG:mode>RGB</xmpG:mode>
                           <xmpG:type>PROCESS</xmpG:type>
                           <xmpG:red>163</xmpG:red>
                           <xmpG:green>25</xmpG:green>
                           <xmpG:blue>91</xmpG:blue>
                        </rdf:li>
                        <rdf:li rdf:parseType="Resource">
                           <xmpG:swatchName>C=10 M=100 Y=50 K=0</xmpG:swatchName>
                           <xmpG:mode>RGB</xmpG:mode>
                           <xmpG:type>PROCESS</xmpG:type>
                           <xmpG:red>214</xmpG:red>
                           <xmpG:green>11</xmpG:green>
                           <xmpG:blue>82</xmpG:blue>
                        </rdf:li>
                        <rdf:li rdf:parseType="Resource">
                           <xmpG:swatchName>C=0 M=95 Y=20 K=0</xmpG:swatchName>
                           <xmpG:mode>RGB</xmpG:mode>
                           <xmpG:type>PROCESS</xmpG:type>
                           <xmpG:red>231</xmpG:red>
                           <xmpG:green>29</xmpG:green>
                           <xmpG:blue>115</xmpG:blue>
                        </rdf:li>
                        <rdf:li rdf:parseType="Resource">
                           <xmpG:swatchName>C=25 M=25 Y=40 K=0</xmpG:swatchName>
                           <xmpG:mode>RGB</xmpG:mode>
                           <xmpG:type>PROCESS</xmpG:type>
                           <xmpG:red>203</xmpG:red>
                           <xmpG:green>187</xmpG:green>
                           <xmpG:blue>160</xmpG:blue>
                        </rdf:li>
                        <rdf:li rdf:parseType="Resource">
                           <xmpG:swatchName>C=40 M=45 Y=50 K=5</xmpG:swatchName>
                           <xmpG:mode>RGB</xmpG:mode>
                           <xmpG:type>PROCESS</xmpG:type>
                           <xmpG:red>164</xmpG:red>
                           <xmpG:green>138</xmpG:green>
                           <xmpG:blue>123</xmpG:blue>
                        </rdf:li>
                        <rdf:li rdf:parseType="Resource">
                           <xmpG:swatchName>C=50 M=50 Y=60 K=25</xmpG:swatchName>
                           <xmpG:mode>RGB</xmpG:mode>
                           <xmpG:type>PROCESS</xmpG:type>
                           <xmpG:red>123</xmpG:red>
                           <xmpG:green>106</xmpG:green>
                           <xmpG:blue>88</xmpG:blue>
                        </rdf:li>
                        <rdf:li rdf:parseType="Resource">
                           <xmpG:swatchName>C=55 M=60 Y=65 K=40</xmpG:swatchName>
                           <xmpG:mode>RGB</xmpG:mode>
                           <xmpG:type>PROCESS</xmpG:type>
                           <xmpG:red>99</xmpG:red>
                           <xmpG:green>78</xmpG:green>
                           <xmpG:blue>66</xmpG:blue>
                        </rdf:li>
                        <rdf:li rdf:parseType="Resource">
                           <xmpG:swatchName>C=25 M=40 Y=65 K=0</xmpG:swatchName>
                           <xmpG:mode>RGB</xmpG:mode>
                           <xmpG:type>PROCESS</xmpG:type>
                           <xmpG:red>202</xmpG:red>
                           <xmpG:green>158</xmpG:green>
                           <xmpG:blue>103</xmpG:blue>
                        </rdf:li>
                        <rdf:li rdf:parseType="Resource">
                           <xmpG:swatchName>C=30 M=50 Y=75 K=10</xmpG:swatchName>
                           <xmpG:mode>RGB</xmpG:mode>
                           <xmpG:type>PROCESS</xmpG:type>
                           <xmpG:red>177</xmpG:red>
                           <xmpG:green>127</xmpG:green>
                           <xmpG:blue>74</xmpG:blue>
                        </rdf:li>
                        <rdf:li rdf:parseType="Resource">
                           <xmpG:swatchName>C=35 M=60 Y=80 K=25</xmpG:swatchName>
                           <xmpG:mode>RGB</xmpG:mode>
                           <xmpG:type>PROCESS</xmpG:type>
                           <xmpG:red>147</xmpG:red>
                           <xmpG:green>96</xmpG:green>
                           <xmpG:blue>55</xmpG:blue>
                        </rdf:li>
                        <rdf:li rdf:parseType="Resource">
                           <xmpG:swatchName>C=40 M=65 Y=90 K=35</xmpG:swatchName>
                           <xmpG:mode>RGB</xmpG:mode>
                           <xmpG:type>PROCESS</xmpG:type>
                           <xmpG:red>125</xmpG:red>
                           <xmpG:green>78</xmpG:green>
                           <xmpG:blue>36</xmpG:blue>
                        </rdf:li>
                        <rdf:li rdf:parseType="Resource">
                           <xmpG:swatchName>C=40 M=70 Y=100 K=50</xmpG:swatchName>
                           <xmpG:mode>RGB</xmpG:mode>
                           <xmpG:type>PROCESS</xmpG:type>
                           <xmpG:red>104</xmpG:red>
                           <xmpG:green>60</xmpG:green>
                           <xmpG:blue>17</xmpG:blue>
                        </rdf:li>
                        <rdf:li rdf:parseType="Resource">
                           <xmpG:swatchName>C=50 M=70 Y=80 K=70</xmpG:swatchName>
                           <xmpG:mode>RGB</xmpG:mode>
                           <xmpG:type>PROCESS</xmpG:type>
                           <xmpG:red>67</xmpG:red>
                           <xmpG:green>41</xmpG:green>
                           <xmpG:blue>24</xmpG:blue>
                        </rdf:li>
                     </rdf:Seq>
                  </xmpG:Colorants>
               </rdf:li>
               <rdf:li rdf:parseType="Resource">
                  <xmpG:groupName>Grays</xmpG:groupName>
                  <xmpG:groupType>1</xmpG:groupType>
                  <xmpG:Colorants>
                     <rdf:Seq>
                        <rdf:li rdf:parseType="Resource">
                           <xmpG:swatchName>C=0 M=0 Y=0 K=100</xmpG:swatchName>
                           <xmpG:mode>RGB</xmpG:mode>
                           <xmpG:type>PROCESS</xmpG:type>
                           <xmpG:red>29</xmpG:red>
                           <xmpG:green>29</xmpG:green>
                           <xmpG:blue>27</xmpG:blue>
                        </rdf:li>
                        <rdf:li rdf:parseType="Resource">
                           <xmpG:swatchName>C=0 M=0 Y=0 K=90</xmpG:swatchName>
                           <xmpG:mode>RGB</xmpG:mode>
                           <xmpG:type>PROCESS</xmpG:type>
                           <xmpG:red>60</xmpG:red>
                           <xmpG:green>60</xmpG:green>
                           <xmpG:blue>59</xmpG:blue>
                        </rdf:li>
                        <rdf:li rdf:parseType="Resource">
                           <xmpG:swatchName>C=0 M=0 Y=0 K=80</xmpG:swatchName>
                           <xmpG:mode>RGB</xmpG:mode>
                           <xmpG:type>PROCESS</xmpG:type>
                           <xmpG:red>87</xmpG:red>
                           <xmpG:green>87</xmpG:green>
                           <xmpG:blue>86</xmpG:blue>
                        </rdf:li>
                        <rdf:li rdf:parseType="Resource">
                           <xmpG:swatchName>C=0 M=0 Y=0 K=70</xmpG:swatchName>
                           <xmpG:mode>RGB</xmpG:mode>
                           <xmpG:type>PROCESS</xmpG:type>
                           <xmpG:red>112</xmpG:red>
                           <xmpG:green>111</xmpG:green>
                           <xmpG:blue>111</xmpG:blue>
                        </rdf:li>
                        <rdf:li rdf:parseType="Resource">
                           <xmpG:swatchName>C=0 M=0 Y=0 K=60</xmpG:swatchName>
                           <xmpG:mode>RGB</xmpG:mode>
                           <xmpG:type>PROCESS</xmpG:type>
                           <xmpG:red>135</xmpG:red>
                           <xmpG:green>135</xmpG:green>
                           <xmpG:blue>135</xmpG:blue>
                        </rdf:li>
                        <rdf:li rdf:parseType="Resource">
                           <xmpG:swatchName>C=0 M=0 Y=0 K=50</xmpG:swatchName>
                           <xmpG:mode>RGB</xmpG:mode>
                           <xmpG:type>PROCESS</xmpG:type>
                           <xmpG:red>157</xmpG:red>
                           <xmpG:green>157</xmpG:green>
                           <xmpG:blue>156</xmpG:blue>
                        </rdf:li>
                        <rdf:li rdf:parseType="Resource">
                           <xmpG:swatchName>C=0 M=0 Y=0 K=40</xmpG:swatchName>
                           <xmpG:mode>RGB</xmpG:mode>
                           <xmpG:type>PROCESS</xmpG:type>
                           <xmpG:red>178</xmpG:red>
                           <xmpG:green>178</xmpG:green>
                           <xmpG:blue>178</xmpG:blue>
                        </rdf:li>
                        <rdf:li rdf:parseType="Resource">
                           <xmpG:swatchName>C=0 M=0 Y=0 K=30</xmpG:swatchName>
                           <xmpG:mode>RGB</xmpG:mode>
                           <xmpG:type>PROCESS</xmpG:type>
                           <xmpG:red>198</xmpG:red>
                           <xmpG:green>198</xmpG:green>
                           <xmpG:blue>198</xmpG:blue>
                        </rdf:li>
                        <rdf:li rdf:parseType="Resource">
                           <xmpG:swatchName>C=0 M=0 Y=0 K=20</xmpG:swatchName>
                           <xmpG:mode>RGB</xmpG:mode>
                           <xmpG:type>PROCESS</xmpG:type>
                           <xmpG:red>218</xmpG:red>
                           <xmpG:green>218</xmpG:green>
                           <xmpG:blue>218</xmpG:blue>
                        </rdf:li>
                        <rdf:li rdf:parseType="Resource">
                           <xmpG:swatchName>C=0 M=0 Y=0 K=10</xmpG:swatchName>
                           <xmpG:mode>RGB</xmpG:mode>
                           <xmpG:type>PROCESS</xmpG:type>
                           <xmpG:red>237</xmpG:red>
                           <xmpG:green>237</xmpG:green>
                           <xmpG:blue>237</xmpG:blue>
                        </rdf:li>
                        <rdf:li rdf:parseType="Resource">
                           <xmpG:swatchName>C=0 M=0 Y=0 K=5</xmpG:swatchName>
                           <xmpG:mode>RGB</xmpG:mode>
                           <xmpG:type>PROCESS</xmpG:type>
                           <xmpG:red>246</xmpG:red>
                           <xmpG:green>246</xmpG:green>
                           <xmpG:blue>246</xmpG:blue>
                        </rdf:li>
                     </rdf:Seq>
                  </xmpG:Colorants>
               </rdf:li>
               <rdf:li rdf:parseType="Resource">
                  <xmpG:groupName>Brights</xmpG:groupName>
                  <xmpG:groupType>1</xmpG:groupType>
                  <xmpG:Colorants>
                     <rdf:Seq>
                        <rdf:li rdf:parseType="Resource">
                           <xmpG:swatchName>C=0 M=100 Y=100 K=0</xmpG:swatchName>
                           <xmpG:mode>RGB</xmpG:mode>
                           <xmpG:type>PROCESS</xmpG:type>
                           <xmpG:red>227</xmpG:red>
                           <xmpG:green>6</xmpG:green>
                           <xmpG:blue>19</xmpG:blue>
                        </rdf:li>
                        <rdf:li rdf:parseType="Resource">
                           <xmpG:swatchName>C=0 M=75 Y=100 K=0</xmpG:swatchName>
                           <xmpG:mode>RGB</xmpG:mode>
                           <xmpG:type>PROCESS</xmpG:type>
                           <xmpG:red>234</xmpG:red>
                           <xmpG:green>91</xmpG:green>
                           <xmpG:blue>12</xmpG:blue>
                        </rdf:li>
                        <rdf:li rdf:parseType="Resource">
                           <xmpG:swatchName>C=0 M=10 Y=95 K=0</xmpG:swatchName>
                           <xmpG:mode>RGB</xmpG:mode>
                           <xmpG:type>PROCESS</xmpG:type>
                           <xmpG:red>255</xmpG:red>
                           <xmpG:green>222</xmpG:green>
                           <xmpG:blue>0</xmpG:blue>
                        </rdf:li>
                        <rdf:li rdf:parseType="Resource">
                           <xmpG:swatchName>C=85 M=10 Y=100 K=0</xmpG:swatchName>
                           <xmpG:mode>RGB</xmpG:mode>
                           <xmpG:type>PROCESS</xmpG:type>
                           <xmpG:red>0</xmpG:red>
                           <xmpG:green>152</xmpG:green>
                           <xmpG:blue>58</xmpG:blue>
                        </rdf:li>
                        <rdf:li rdf:parseType="Resource">
                           <xmpG:swatchName>C=100 M=90 Y=0 K=0</xmpG:swatchName>
                           <xmpG:mode>RGB</xmpG:mode>
                           <xmpG:type>PROCESS</xmpG:type>
                           <xmpG:red>39</xmpG:red>
                           <xmpG:green>52</xmpG:green>
                           <xmpG:blue>139</xmpG:blue>
                        </rdf:li>
                        <rdf:li rdf:parseType="Resource">
                           <xmpG:swatchName>C=60 M=90 Y=0 K=0</xmpG:swatchName>
                           <xmpG:mode>RGB</xmpG:mode>
                           <xmpG:type>PROCESS</xmpG:type>
                           <xmpG:red>130</xmpG:red>
                           <xmpG:green>54</xmpG:green>
                           <xmpG:blue>140</xmpG:blue>
                        </rdf:li>
                     </rdf:Seq>
                  </xmpG:Colorants>
               </rdf:li>
            </rdf:Seq>
         </xmpTPg:SwatchGroups>
         <pdf:Producer>Adobe PDF library 10.01</pdf:Producer>
      </rdf:Description>
   </rdf:RDF>
</x:xmpmeta>
                                                                                                    
                                                                                                    
                                                                                                    
                                                                                                    
                                                                                                    
                                                                                                    
                                                                                                    
                                                                                                    
                                                                                                    
                                                                                                    
                                                                                                    
                                                                                                    
                                                                                                    
                                                                                                    
                                                                                                    
                                                                                                    
                                                                                                    
                                                                                                    
                                                                                                    
                                                                                                    
                           
<?xpacket end="w"?>
	</metadata>
<g>
	<path d="M122.2916,488.0147c-0.9315-3.3498-1.7892-6.6499-2.5574-9.7233l-0.2017-0.5247
		c-3.0522-11.0329-7.6379-28.0724-11.4161-42.1728c-1.4115-5.2512-2.7178-10.1246-3.7801-14.0881
		c-0.9876-3.7393-1.8001-6.6926-2.2811-8.4666l-0.5243-1.9151c-0.663-2.4547-2.3755-8.956,3.2077-12.959l0.1278-0.0934l3.188-3.2455
		c0.2616-0.2385,0.5361-0.4741,0.8075-0.7092c0.2941-0.2552,0.5705-0.5149,0.8755-0.7672c0.7849-0.6478,1.6112-1.2896,2.4551-1.9299
		c0.2508-0.1898,0.4869-0.3831,0.7416-0.573c1.0968-0.8174,2.222-1.6339,3.366-2.4601c5.1562-3.7309,10.9665-7.9438,15.3801-13.4758
		c2.342-2.9883,2.8044-4.8242,2.4463-5.5315c-0.3325-0.6905-2.2721-1.8521-7.4629-1.8521c-6.2952,0-13.9617,1.7463-16.3391,2.8904
		l-0.002,0.001l-0.0551,0.0207c-8.4927,4.2709-16.4011,9.6548-24.7718,15.3609c-19.5222,13.2741-39.9532,26.862-67.8216,25.727
		c5.2083,10.7137,21.1481,40.3023,42.8304,49.4959l1.9279,0.8213l-0.3748,2.046c-0.1307,0.7421-0.3324,2.166-0.5941,4.054
		c-2.9794,21.7944-6.3887,37.6205-12.4263,42.5573c4.088,3.9597,8.9491,5.925,15.1086,6.1526
		c1.802,0.1319,3.4958,0.2012,5.1139,0.2012c20.6917,0,37.2788-9.4817,54.7992-19.5315l0.8912-0.4982
		c-0.7377-2.2102-1.3761-4.4662-2.0254-6.7119C122.7205,489.405,122.4893,488.7214,122.2916,488.0147z"/>
	<path d="M135.8284,364.2672c0.3049,0.1731,0.6433,0.3275,0.9078,0.5258c0.847,0.6329,1.5424,1.3614,1.9938,2.2427
		c0.0148,0.0275,0.0493,0.0428,0.0629,0.0713c0.3591,0.7437,0.5637,1.5266,0.6178,2.3523c0.1092,1.6446-0.3954,3.4624-1.5177,5.4794
		c-0.5616,1.0096-1.2768,2.0676-2.1503,3.1796c-4.8316,6.1093-10.993,10.5485-16.4188,14.4623
		c-1.6151,1.175-3.121,2.2811-4.5384,3.3723c-0.483,0.3704-0.9738,0.7432-1.4263,1.1081c-0.4505,0.3654-0.8479,0.7269-1.264,1.0909
		c-0.424,0.3698-0.8469,0.7406-1.2326,1.111c-0.4042,0.39-0.7563,0.7834-1.1105,1.1754c-0.2075,0.2272-0.3984,0.4559-0.5862,0.685
		c0.0826,0.2125,0.1731,0.4343,0.3088,0.6925c0.0355,0.0684,0.0541,0.124,0.0954,0.1968c0.2144,0.3757,0.5253,0.7928,0.8823,1.2157
		c0.302,0.3458,0.6935,0.6944,1.1164,1.0451c0.1604,0.1377,0.2941,0.274,0.4741,0.4096c0.4574,0.3345,1.023,0.6537,1.619,0.9625
		c0.1869,0.1003,0.3649,0.2001,0.5676,0.2965c0.6374,0.2966,1.3742,0.5616,2.168,0.8071c0.2842,0.0885,0.5901,0.1687,0.897,0.2484
		c0.8184,0.2119,1.7086,0.3954,2.6912,0.5356c0.4927,0.0694,1.0574,0.1018,1.5954,0.1491c0.9502,0.0855,1.9063,0.1701,3.0002,0.1795
		c1.7479,0.006,3.6148-0.0517,5.77-0.2842c6.2677-0.8538,12.8335-2.2098,19.7395-3.9321c1.2433-0.3118,2.4128-0.5489,3.6896-0.8922
		c2.1493-0.5754,4.4589-1.3013,6.7025-1.9633c2.1738-0.6452,4.2837-1.2329,6.5628-1.9643c2.1207-0.6821,4.4165-1.5005,6.6317-2.2585
		c2.1187-0.7244,4.212-1.4283,6.4242-2.2259c-0.3246-0.874-0.6493-1.7258-0.9818-2.5619c-0.4514-1.1307-0.897-2.2791-1.3652-3.3404
		c-0.4898-1.1115-1.0023-2.132-1.5109-3.1673c-0.5203-1.056-1.0338-2.133-1.5738-3.1107c-0.4948-0.8981-1.0171-1.7042-1.5306-2.5358
		c-0.5931-0.96-1.1784-1.9466-1.797-2.8206c-0.5046-0.716-1.0398-1.3387-1.562-1.9973c-0.665-0.8385-1.321-1.7026-2.0145-2.4512
		c-0.5321-0.5744-1.0978-1.0505-1.6485-1.5723c-0.725-0.6871-1.439-1.4081-2.1945-2.0047c-0.5892-0.4648-1.2178-0.8237-1.8276-1.234
		c-0.7594-0.5134-1.5069-1.0692-2.2977-1.4981c-0.7417-0.4003-1.5325-0.6811-2.3027-1.0077
		c-0.7082-0.3015-1.3928-0.6634-2.1227-0.9039c-1.5315-0.5007-3.1132-0.8799-4.7549-1.1169c-2.9932-0.4367-5.952-0.663-8.894-0.6797
		c-0.421-0.0025-0.8361,0.0698-1.2561,0.0753c-2.5092,0.0394-5.0106,0.1776-7.5071,0.543c-0.0609,0.0088-0.122,0.0285-0.1829,0.0379
		c0.2242,0.055,0.3482,0.1721,0.5606,0.2331C134.2802,363.5034,135.1044,363.8526,135.8284,364.2672z"/>
	<path d="M696.403,398.8941c1.9526,0.6275,3.7555,1.1267,5.6313,1.6913c2.4857,0.7466,5.0294,1.5433,7.3931,2.1797
		c1.7872,0.481,3.4446,0.8322,5.1689,1.2512c2.2034,0.5376,4.4589,1.1277,6.5697,1.5684c3.7151,0.7619,7.451,1.4779,11.1573,1.9575
		l0.5597,0.0438v-0.0084c2.1788,0.2203,4.0604,0.2714,5.8192,0.2587c0.8086-0.0084,1.5187-0.0645,2.2446-0.1116
		c0.8322-0.0556,1.6388-0.1211,2.3696-0.2243c0.6797-0.093,1.3476-0.1928,1.9437-0.3216c0.7328-0.1599,1.3879-0.3492,2.0065-0.5518
		c0.4899-0.1584,0.9876-0.3109,1.4125-0.4883c0.7526-0.3236,1.4283-0.667,1.9938-1.0338c0.2479-0.1574,0.4515-0.3202,0.6679-0.4835
		c0.4092-0.3123,0.783-0.6251,1.0889-0.9414c0.1377-0.1426,0.2852-0.2852,0.4062-0.424c0.3423-0.4057,0.6276-0.8026,0.8342-1.1651
		c0.059-0.1068,0.1032-0.1987,0.1523-0.3c0.1171-0.2346,0.2047-0.4426,0.2735-0.6383c-0.1859-0.2287-0.3787-0.4574-0.5804-0.6841
		c-0.3727-0.4137-0.7466-0.8288-1.1714-1.2399c-0.3542-0.3388-0.7418-0.6797-1.1302-1.0195
		c-0.4328-0.3827-0.8538-0.7648-1.323-1.1489c-0.6099-0.4944-1.263-0.9975-1.9309-1.5011
		c-0.2941-0.2237-0.5665-0.4431-0.8685-0.6698c-1.0269-0.7614-2.0991-1.5374-3.2145-2.3425
		c-5.3727-3.9065-11.5243-8.3451-16.3677-14.419c-0.8696-1.1101-1.5856-2.1675-2.1443-3.1756
		c-1.1213-2.016-1.6249-3.8362-1.5118-5.4809c0.0561-0.8267,0.2666-1.6107,0.6306-2.3543c0.4584-0.9526,1.2266-1.7149,2.1463-2.3833
		c0.2409-0.1761,0.538-0.3127,0.8095-0.4682c0.7839-0.4471,1.6919-0.8134,2.7296-1.0968c0.2214-0.0609,0.3531-0.1829,0.5882-0.237
		c-2.1177-0.3152-4.2769-0.4087-6.4369-0.4884c-0.7367-0.028-1.4754-0.1588-2.2151-0.1593
		c-3.0001,0.002-6.0435,0.2213-9.1281,0.6556c-0.3905,0.0556-0.726,0.1568-1.1007,0.2242
		c-1.2954,0.2243-2.5771,0.5326-3.8323,0.9502c-0.658,0.2134-1.3278,0.4112-1.9623,0.6684
		c-0.0433,0.0172-0.0875,0.0309-0.1319,0.0502c-6.0523,2.6621-11.058,7.213-15.3575,13.9444
		c-0.1337,0.2076-0.2665,0.396-0.3973,0.6074c-0.6403,1.0314-1.2531,2.1518-1.8591,3.2834
		c-0.2734,0.5026-0.5449,0.9871-0.8095,1.5119c-0.5076,1.0003-0.9926,2.0696-1.4794,3.1466
		c-0.3246,0.7201-0.6522,1.4322-0.9708,2.1876c-0.4516,1.0721-0.8863,2.2052-1.324,3.3477
		c-0.1829,0.4864-0.3679,0.9803-0.5488,1.4789c2.0165,0.7318,3.9197,1.3727,5.8614,2.043
		C691.5282,397.2331,694.0581,398.1391,696.403,398.8941z"/>
	<path d="M845.6743,411.4742c-27.9725,1.2945-48.3604-12.4528-67.8815-25.7531c-8.2861-5.6533-16.2368-11.055-24.636-15.2669v0.0438
		c0,0,0,0-0.0256,0c-1.6446-0.8469-6.125-1.9968-10.9055-2.5816c-0.2105-0.0266-0.42-0.06-0.6326-0.0841
		c-0.244-0.0271-0.4849-0.0408-0.7278-0.064c-1.4312-0.1387-2.8663-0.2326-4.2415-0.2326c-5.2171,0-7.1569,1.1631-7.4883,1.862
		c-0.3414,0.7254,0.1032,2.5333,2.4285,5.5221c4.4048,5.5059,10.2151,9.709,15.3545,13.4232
		c1.1597,0.8401,2.2988,1.6692,3.4093,2.4984c0.2223,0.1668,0.4289,0.3364,0.6492,0.5027c0.8578,0.6511,1.6978,1.3053,2.4946,1.9638
		c0.3669,0.3044,0.7003,0.6181,1.0495,0.9241c0.605,0.5277,1.1971,1.0578,1.746,1.5993c0.3905,0.3871,0.7358,0.7899,1.0958,1.1863
		c0.296,0.329,0.6354,0.6458,0.908,0.9812l0.0964,0.0797c3.6975,2.3494,4.9172,7.1042,3.3453,13.0547l-0.5331,1.9236
		c-0.2725,1.0111-0.6678,2.4861-1.1262,4.1942c-0.3256,1.2275-0.6689,2.5259-1.0751,4.0462
		c-3.4053,12.7523-9.319,34.8083-13.5653,50.3281c-0.601,2.1998-1.1695,4.268-1.6927,6.159l-1.0762,3.9409
		c-1.0132,4.0895-2.0262,7.6989-3.0139,10.9857l-0.9777,3.5819v-0.4451c-0.1032,0.3138-0.2017,0.5966-0.303,0.9015l0.8627,0.479
		c18.9615,10.8623,36.7632,21.1914,59.8501,19.3747c6.248-0.2178,11.1515-2.2024,15.2513-6.1713
		c-6.0228-4.9364-9.4114-20.6046-12.3918-42.1546c-0.3059-2.0715-0.5155-3.6177-0.6749-4.4224l-0.3925-2.0617l1.923-0.8223
		C824.5007,451.7865,840.468,422.1884,845.6743,411.4742z"/>
	<path d="M739.2816,474.4631c2.5879-9.4842,6.1153-22.5748,9.3209-34.5073c1.981-7.3782,3.8382-14.3168,5.2713-19.6717
		c0.4299-1.5851,0.7958-2.9435,1.1234-4.1489c0.294-1.0913,0.5528-2.0317,0.7859-2.8516c-1.68,0.1677-3.5096,0.1176-5.2555,0.1854
		c-1.1932,0.0476-2.2576,0.2508-3.485,0.2508c-0.6069,0-1.2483-0.0521-1.8581-0.063c-0.4692-0.0089-0.962-0.0345-1.4351-0.0502
		c-3.5765-0.1126-7.2494-0.36-11.235-0.8587c-0.0493-0.0039-0.0876-0.002-0.1378-0.007l-0.7612-0.0693
		c-0.0423-0.0074-0.0895-0.0173-0.1358-0.0246l-0.0206-0.002c-0.6738-0.089-1.3515-0.2198-2.0244-0.3197
		c-11.4219-1.6633-22.9835-4.7012-33.1927-7.9167c-6.4575-2.0313-12.3555-4.1146-17.3296-5.9378l-0.4978-0.1761l-0.0599-0.0162
		l-0.0355-0.0186l-1.1351-0.4018v-0.096l-0.902-0.3054l0.0295-0.091c-10.334-3.8628-20.2136-7.8848-28.9621-11.4957
		c-7.4284-3.0405-14.1033-5.7857-19.6893-7.8489l-7.8307-2.8304c-45.9033-16.6392-97.9797-35.5052-188.1888-36.5804
		c-90.4028,1.0751-142.4793,19.9771-188.4277,36.6507l-7.6123,2.7694c-5.5988,2.0539-12.2767,4.7991-19.7662,7.8651
		c-8.7907,3.6144-18.7234,7.6635-29.0909,11.5444l0.0099,0.0266l-0.6295,0.2281l-3.9867,1.5729
		c-11.5341,4.1332-21.6911,7.2454-30.9383,9.5349c-6.5716,1.625-12.7656,2.8919-18.5493,3.6798
		c-0.3334,0.0486-0.6983,0.1342-1.0298,0.18l-0.7083,0.0786c-0.0884,0.0084-0.1544,0.003-0.2449,0.0128
		c-3.9424,0.4933-7.6802,0.7446-11.2656,0.8568c-0.4131,0.0128-0.8213,0.0349-1.2325,0.0433
		c-0.6295,0.0113-1.3063,0.0659-1.9211,0.0659c-1.2482,0-2.3371-0.2056-3.5489-0.2557c-1.7439-0.0659-3.5902-0.0192-5.2339-0.1805
		c0.002,0.0074,0.0049,0.0196,0.0079,0.0275c0.1298,0.455,0.2794,1.0038,0.427,1.5395c0.4072,1.472,0.8655,3.1461,1.4459,5.3101
		c3.7378,14.0001,18.8139,70.1823,21.1904,76.9885c3.9227,11.239,8.1612,18.2469,12.9781,21.4727
		c6.3611,4.1681,14.4889,6.3085,24.0665,6.3085c21.095,0,45.1615-9.9003,62.7686-17.1373c4.9998-2.044,9.4134-3.8613,13.038-5.1558
		l0.062,0.0778c2.1502-1.0909,7.027-2.7424,17.905-6.4488c9.559-3.2509,23.5876-7.812,36.1545-11.0708
		c44.3401-11.7362,86.9404-17.2687,134.1321-17.3891c47.242,0.1205,89.8432,5.6613,134.1047,17.398
		c12.5679,3.2672,26.6368,7.8213,36.1957,11.0619c10.8712,3.7064,15.748,5.3579,17.8884,6.4488l0.0599-0.0778
		c3.611,1.2945,8.0147,3.1024,12.9968,5.138c17.609,7.245,41.7287,17.1551,62.8148,17.1551c9.5855,0,17.7035-2.1404,24.0755-6.3178
		c4.8571-3.2421,9.1133-10.2849,13.0035-21.5151c1.9131-5.558,3.7841-12.1208,5.8467-20.6415L739.2816,474.4631z"/>
</g>
</svg>
