<?xml version="1.0" encoding="iso-8859-1"?>
<!-- Generator: Adobe Illustrator 20.1.0, SVG Export Plug-In . SVG Version: 6.00 Build 0)  -->
<svg xmlns="http://www.w3.org/2000/svg" xmlns:xlink="http://www.w3.org/1999/xlink" version="1.1" id="&#1057;&#1083;&#1086;&#1081;_1" x="0px" y="0px" viewBox="0 0 64 64" style="enable-background:new 0 0 64 64;" xml:space="preserve">
<linearGradient id="SVGID_1__44819" gradientUnits="userSpaceOnUse" x1="17.9999" y1="17.8333" x2="17.9999" y2="56.3366" spreadMethod="reflect">
	<stop offset="0" style="stop-color:#6DC7FF"/>
	<stop offset="1" style="stop-color:#E6ABFF"/>
</linearGradient>
<rect x="15" y="18" style="fill:url(#SVGID_1__44819);" width="6" height="38"/>
<linearGradient id="SVGID_2__44819" gradientUnits="userSpaceOnUse" x1="32" y1="4.9992" x2="32" y2="58.2817" spreadMethod="reflect">
	<stop offset="0" style="stop-color:#1A6DFF"/>
	<stop offset="1" style="stop-color:#C822FF"/>
</linearGradient>
<path style="fill:url(#SVGID_2__44819);" d="M47,16h-1v-2.565c0-0.901-0.399-1.746-1.097-2.318s-1.605-0.797-2.487-0.622L41,10.777V9.011  c0-1.022-0.511-1.966-1.365-2.523c-0.852-0.555-1.915-0.642-2.844-0.231l-21.046,9.279C14.684,16.024,14,17.096,14,18.265V55  c0,1.654,1.345,3,3,3H47c1.654,0,3-1.345,3-3V18.999C50,17.345,48.655,16,47,16z M42.807,12.456  c0.293-0.056,0.596,0.017,0.828,0.208C43.867,12.853,44,13.135,44,13.435V16H25.015L42.807,12.456z M37.598,8.086  c0.313-0.138,0.658-0.11,0.944,0.077C38.833,8.353,39,8.662,39,9.011v2.164L23.661,14.23L37.598,8.086z M16,55V18.999  C16,18.448,16.448,18,17,18h3v38h-3C16.448,56,16,55.552,16,55z M48,55c0,0.552-0.448,1-1,1H22V18h25c0.552,0,1,0.448,1,0.999V55z"/>
<linearGradient id="SVGID_3__44819" gradientUnits="userSpaceOnUse" x1="35" y1="4.9992" x2="35" y2="58.2821" spreadMethod="reflect">
	<stop offset="0" style="stop-color:#1A6DFF"/>
	<stop offset="1" style="stop-color:#C822FF"/>
</linearGradient>
<path style="fill:url(#SVGID_3__44819);" d="M39.724,35.567C39.889,35.071,40,34.55,40,34v-2c0-2.757-2.243-5-5-5s-5,2.243-5,5v2  c0,0.551,0.111,1.071,0.276,1.567C28.256,37.058,27,39.44,27,42v1h16v-1C43,39.441,41.744,37.058,39.724,35.567z M32,32  c0-1.654,1.346-3,3-3s3,1.346,3,3v2c0,1.654-1.346,3-3,3s-3-1.346-3-3V32z M29.085,41c0.25-1,1.039-2.778,2.191-3.697  C32.192,38.335,33.514,39,35,39c1.486,0,2.807-0.665,3.724-1.697C39.877,38.223,40.665,40,40.915,41H29.085z"/>
<linearGradient id="SVGID_4__44819" gradientUnits="userSpaceOnUse" x1="35" y1="5" x2="35" y2="58.2817" spreadMethod="reflect">
	<stop offset="0" style="stop-color:#1A6DFF"/>
	<stop offset="1" style="stop-color:#C822FF"/>
</linearGradient>
<rect x="27" y="45" style="fill:url(#SVGID_4__44819);" width="16" height="2"/>
</svg>
