<?xml version="1.0" encoding="iso-8859-1"?>
<!-- Generator: Adobe Illustrator 19.0.0, SVG Export Plug-In . SVG Version: 6.00 Build 0)  -->
<svg version="1.1" id="Layer_1" xmlns="http://www.w3.org/2000/svg" xmlns:xlink="http://www.w3.org/1999/xlink" x="0px" y="0px"
	 viewBox="0 0 480 480" style="enable-background:new 0 0 480 480;" xml:space="preserve">
<g transform="translate(0 -540.36)">
	<g>
		<path style="fill:#2980B9;" d="M135.3,540.36h11.492v152.595H135.3V540.36z"/>
		<path style="fill:#2980B9;" d="M333.928,540.36h11.491v152.595h-11.491V540.36z"/>
	</g>
	<path style="fill:#216694;" d="M333.928,668.225v3.053h11.492v-3.053H333.928z"/>
	<path style="fill:#9CDCFF;" d="M43.12,771.168h393.682v229.505H43.12L43.12,771.168z"/>
	<path style="fill:#89BCD8;" d="M43.119,771.169v40.908c0.72,0.044,1.445,0.074,2.178,0.074c18.167,0,32.793-13.727,32.793-30.777
		c0,17.05,14.624,30.777,32.791,30.777s32.793-13.727,32.793-30.777c0,17.05,14.627,30.777,32.795,30.777
		s32.793-13.727,32.793-30.777c0,17.05,14.626,30.777,32.793,30.777c18.167,0,32.795-13.727,32.795-30.777
		c0,17.05,14.626,30.777,32.793,30.777s32.793-13.727,32.793-30.777c0,17.05,14.624,30.777,32.791,30.777
		c18.167,0,32.793-13.727,32.793-30.777c0,16.415,13.559,29.744,30.781,30.715v-40.92H43.119L43.119,771.169z"/>
	<g>
		<path style="fill:#ECF0F1;" d="M10.28,750.274l459.44,0.236l-69.434-60.964L74.483,688.69L10.28,750.274z"/>
		<g>
			<path style="fill:#3498DB;" d="M76.425,750.252l48.461-61.69l47.43,0.302l-30.589,61.539L76.425,750.252z"/>
			<path style="fill:#3498DB;" d="M218.906,689.035l44.918,0.095l9.05,61.175l-65.577-0.042L218.906,689.035z"/>
			<path style="fill:#3498DB;" d="M312.078,689.364l26.459,60.921l65.689,0.357l-45.284-61.476L312.078,689.364z"/>
		</g>
	</g>
	<path style="fill:#BDC3C7;" d="M10.536,750.252v28.28c0,17.05,14.626,30.777,32.793,30.777c18.167,0,32.793-13.726,32.793-30.777
		v-28.28H10.536z"/>
	<path style="fill:#2980B9;" d="M76.122,750.252v28.28c0,17.05,14.626,30.777,32.793,30.777s32.793-13.726,32.793-30.777v-28.28
		C141.709,750.252,76.122,750.252,76.122,750.252z"/>
	<path style="fill:#BDC3C7;" d="M141.709,750.252v28.28c0,17.05,14.626,30.777,32.793,30.777s32.793-13.726,32.793-30.777v-28.28
		H141.709z"/>
	<path style="fill:#2980B9;" d="M207.295,750.252v28.28c0,17.05,14.626,30.777,32.793,30.777s32.793-13.726,32.793-30.777v-28.28
		H207.295L207.295,750.252z"/>
	<path style="fill:#BDC3C7;" d="M272.882,750.252v28.28c0,17.05,14.626,30.777,32.793,30.777s32.793-13.726,32.793-30.777v-28.28
		H272.882z"/>
	<path style="fill:#2980B9;" d="M338.468,750.252v28.28c0,17.05,14.626,30.777,32.793,30.777c18.167,0,32.793-13.726,32.793-30.777
		v-28.28H338.468L338.468,750.252z"/>
	<path style="fill:#BDC3C7;" d="M404.055,750.252v28.28c0,17.05,14.626,30.777,32.793,30.777c18.167,0,32.793-13.726,32.793-30.777
		v-28.28H404.055L404.055,750.252z"/>
	<path style="fill:#7F8C8D;" d="M16.842,1000.673h446.236v19.687H16.842L16.842,1000.673z"/>
	<g shape-rendering="auto" image-rendering="auto" color-rendering="auto" color-interpolation="sRGB">
		<path style="fill:#6E7374;" d="M78.599,825.215c-1.701,0-3.08,1.379-3.08,3.08v99.582c0.001,1.7,1.38,3.078,3.08,3.078h322.723
			c1.7-0.001,3.077-1.379,3.078-3.078v-99.582c0-1.7-1.378-3.079-3.078-3.08C401.322,825.215,78.599,825.215,78.599,825.215z"/>
		<path style="fill:#B3C7D6;" d="M81.68,831.375h316.563v93.422H81.68L81.68,831.375L81.68,831.375z"/>
	</g>
	<path style="fill:#C2D2DE;" d="M84.089,833.686h311.106v88.799H84.089L84.089,833.686z"/>
	<path style="fill:#216694;" d="M135.299,668.225v3.053h11.492v-3.053H135.299z"/>
	<g shape-rendering="auto" image-rendering="auto" color-rendering="auto" color-interpolation="sRGB">
		<path style="fill:#3498DB;" d="M119.168,553.547c-2.731,0-5.08,1.563-6.566,3.639s-2.287,4.722-2.287,7.592v92.215
			c0,2.869,0.801,5.516,2.287,7.592s3.835,3.641,6.566,3.641h240.947c2.731,0,5.08-1.565,6.566-3.641s2.287-4.722,2.287-7.592
			v-92.215c0-2.869-0.801-5.516-2.287-7.592s-3.835-3.639-6.566-3.639H119.168L119.168,553.547z"/>
		<path style="fill:#ECF0F1;" d="M119.168,559.25h240.947c0.594,0,1.246,0.304,1.93,1.258s1.221,2.497,1.221,4.27v92.215
			c0,1.773-0.538,3.318-1.221,4.271s-1.336,1.256-1.93,1.256H119.168c-0.594,0-1.245-0.302-1.928-1.256s-1.221-2.499-1.221-4.271
			v-92.215c0-1.773,0.538-3.316,1.221-4.27S118.574,559.25,119.168,559.25L119.168,559.25z"/>
		<path style="fill:#BDC0C1;" d="M202.576,571.332L202.576,571.332c-5.876,0-11.884,0.968-18.003,2.883h-0.002
			c-6.081,1.854-11.301,4.509-15.61,7.986c-5.623,4.5-8.788,9.309-8.788,14.412c0,3.323,1.452,6.389,4.051,8.826l0.011,0.011
			l0.009,0.01c2.652,2.411,6.093,4.085,10.209,5.076h0.011l18.861,4.288c2.794,0.881,4.789,1.923,5.965,2.958
			c1.184,1.041,1.585,1.935,1.585,3.058c0,1.218-0.516,2.885-1.765,4.922l-0.011,0.019l-0.009,0.018
			c-3.063,5.26-8.055,9.364-15.231,12.331c-7.25,2.997-14.598,4.485-22.097,4.485c-3.175,0-6.093-0.3-8.801-0.836
			c-2.152-2.144-3.723-4.662-4.659-7.717l-0.002-0.01l-0.002-0.01c-0.062-0.199-0.375-1.758-0.712-4.066
			c-0.337-2.308-0.759-5.51-1.26-9.594l0.004,0.039c-0.234-2.304-0.732-4.186-1.759-5.664c-1.027-1.478-2.766-2.41-4.56-2.41
			c-4.03,0-7.475,2.503-9.835,6.659c-1.142,1.938-1.662,4.269-1.662,6.885c0,2.794,0.916,5.742,2.597,8.874
			c1.663,3.1,3.516,5.535,5.651,7.259h0.002h0.002c3.242,2.609,7.882,4.258,13.778,5.236c4.353,3.425,8.174,5.418,11.757,5.418
			c0.891,0,1.649-0.055,2.451-0.398c0.802-0.344,1.726-1.419,1.726-2.486c0-0.504-0.262-1.12-0.634-1.535
			c9.907-0.275,18.719-1.983,26.287-5.32h0.004c9.897-4.242,16.368-10.624,18.844-18.981h0.002c0.545-1.867,0.832-3.662,0.832-5.382
			c0-4.288-2.116-7.945-5.851-10.23c-2.868-1.876-6.862-3.187-12.08-4.143h-0.006l-12.632-2.354
			c-3.968-0.934-6.844-2.138-8.57-3.414c-1.729-1.278-2.318-2.422-2.318-3.872c0-1.922,1.303-4.445,4.547-7.418l0.007-0.01
			l0.009-0.011c3.211-3.01,7.194-5.231,12.047-6.666h0.011h0.013c4.925-1.526,9.825-2.285,14.724-2.285
			c4.267,0,7.661,0.507,10.134,1.417c2.453,0.902,3.96,2.139,4.855,3.709c0.668,1.351,0.972,2.55,0.972,3.621
			c0,2.156-0.8,3.433-3.023,4.62c-0.476,0.212-1.836,0.507-3.849,0.574H210.8c-1.118,0.038-1.989,0.117-2.786,0.336
			c-0.398,0.11-0.792,0.241-1.234,0.576c-0.442,0.335-0.952,1.075-0.952,1.862c0,1.149,0.979,2.275,1.868,2.651
			c0.888,0.376,1.777,0.449,2.845,0.449c2.289,0,4.797-0.617,7.598-1.752c4.872-1.919,7.777-5.823,7.777-10.716
			c0-5.02-3.088-9.113-8.325-11.536l-0.015-0.01l-0.015-0.01c-4.065-1.798-9.061-2.64-14.987-2.64L202.576,571.332z
			 M234.454,593.949c-1.508,0-2.073,0.732-2.877,1.494c-0.804,0.761-1.687,1.786-2.726,3.122h-0.004l-0.004,0.01
			c-1.435,1.872-2.674,3.469-3.836,4.958h-5.464l-0.157,0.026c-0.38,0.063-0.652,0.082-0.654,0.082h-0.273l-0.262,0.075
			c-1.061,0.31-2.005,0.758-2.756,1.509c-0.75,0.75-1.208,1.854-1.208,2.915c0,1.228,0.498,2.559,1.505,3.358
			c0.825,0.655,1.818,0.875,2.855,0.953c-1.248,2.379-2.468,4.701-4.367,8.499c-2.652,5.229-4.085,9.422-4.085,12.925
			c0,3.239,0.742,5.93,2.825,7.465l0.045,0.032l0.049,0.03c1.815,1.18,4.041,1.709,6.534,1.709c5.522,0,11.215-1.868,17.029-5.442
			c1.838-1.103,3.537-2.465,5.233-3.832c0.084,1.776,0.559,3.482,1.494,4.984c1.308,2.326,3.544,3.86,6.059,3.86h1.724
			c5.125,0,10.21-4.015,16.019-11.148h0.002c2.446-2.993,4.304-5.58,5.588-7.822c1.24-2.165,1.968-3.986,2.019-5.79
			c2.104-0.909,4.071-1.786,5.35-2.58c0.79-0.49,1.435-0.961,1.97-1.509c0.535-0.548,1.053-1.224,1.112-2.24l0.196-3.348
			l-2.982,1.533c-2.475,1.271-4.282,1.784-4.95,1.812c0.11-0.756,0.308-1.613,0.308-2.262c0-2.24-0.543-4.243-1.896-5.676
			c-1.353-1.432-3.341-2.055-5.509-2.055c-2.582,0-5.162,1.232-7.897,3.331c-0.662,0.508-1.377,1.247-2.064,1.866
			c0.109-0.243,0.258-0.436,0.258-0.806c0-0.993-0.437-1.284-0.641-1.488c-0.204-0.204-0.366-0.315-0.535-0.428l-0.494-0.329
			l-16.074,0.224c-1.362,0-2.168-0.033-3.29-0.047c0.418-0.516,1.065-1.231,1.385-1.666c0.461-0.625,0.824-1.163,1.105-1.673
			s0.561-0.912,0.561-1.806c0-1.66-1.23-2.989-2.628-3.735c-1.233-0.657-2.365-1.086-3.593-1.086l0,0L234.454,593.949z
			 M295.845,595.025c-2.049,0-3.8,1.336-5.038,3.193c-1.195,1.792-2.127,4.222-2.961,7.298c-2.475,4.789-6.784,10.808-12.94,17.954
			c-1.319,1.474-2.296,2.582-2.296,4.373c0,0.542,0.279,1.356,0.854,1.817s1.164,0.527,1.598,0.527c0.704,0,1.028-0.22,1.322-0.391
			c0.293-0.171,0.538-0.357,0.796-0.574c0.517-0.433,1.081-0.991,1.757-1.714c1.353-1.447,3.128-3.543,5.369-6.326l0.013-0.017
			l6.343-8.229c0.266,0.313,0.514,0.65,0.821,0.91c0.491,0.417,1.051,0.748,1.647,0.983c-1.257,1.993-2.461,4.144-3.559,6.64
			c-1.659,3.77-2.531,7.329-2.531,10.678c0,3.267,0.741,6.026,2.513,7.986c1.772,1.961,4.433,2.866,7.478,2.866
			c4.399,0,9.315-2.38,15.145-6.734l0.019-0.015l0.021-0.015c0.083-0.065,0.144-0.138,0.226-0.204
			c0.325,1.464,0.859,2.846,1.845,3.956c1.454,1.635,3.519,2.742,6.031,3.457c0.858,0.281,1.771,0.415,2.722,0.415
			c4.467,0,9.387-2.213,15.014-6.285c5.598-4.051,10.404-8.708,14.399-13.959l0.013-0.017l0.013-0.017
			c0.672-0.924,1.226-1.674,1.226-2.956c0-0.588-0.252-1.421-0.856-1.939c-0.604-0.518-1.287-0.623-1.812-0.623
			c-0.853,0-1.458,0.371-1.922,0.742s-0.84,0.804-1.224,1.316l0.022-0.03c-2.986,3.82-6.612,7.448-10.89,10.884l-0.019,0.017
			l-0.021,0.018c-5.519,4.681-9.918,6.76-12.653,6.76c-1.42,0-2.12-0.329-2.563-0.798c-0.443-0.47-0.798-1.321-0.798-2.887
			c0-1.418,0.355-2.745,0.905-4.053c0.104,0,0.198,0.045,0.303,0.045c4.416,0,9.559-2.016,15.737-5.765h0.006
			c6.363-3.819,10.076-8.172,10.076-13.159c0-1.801-0.881-3.518-2.29-4.672c-1.383-1.255-3.238-1.873-5.223-1.873
			c-5.864,0-11.905,3.709-18.397,10.497c-4.141,4.329-6.919,8.387-8.499,12.286c-1.602,1.519-3.269,2.973-5.081,4.287h-0.004h-0.002
			c-4.641,3.394-8.417,4.907-11.039,4.907c-1.239,0-1.801-0.279-2.155-0.658c-0.355-0.379-0.667-1.1-0.667-2.488
			c0-2.593,2.002-7.072,6.478-12.81h0.002c0.003,0,0.003-0.01,0.006-0.01l7.609-9.592l0.105-0.282
			c0.528-1.409-0.128-2.907-1.015-3.892c-0.835-0.927-1.881-1.709-3.253-1.709c-0.327,0-0.61,0.01-0.89,0.035
			c-0.28,0.028-0.515,0.01-1.043,0.273l-0.075,0.037l-2.847,1.752c-1.381,0.815-2.499,1.131-3.33,1.131
			c-0.671,0-0.87-0.103-1.071-0.176l1.808-2.414l0.041-0.055c1.895-2.359,3.075-4.423,3.075-6.638c0-1.085-0.387-2.287-1.277-3.06
			C298.071,595.259,296.949,595.025,295.845,595.025L295.845,595.025L295.845,595.025z M256.876,608.164L256.876,608.164
			c-1.689,1.673-3.432,3.567-5.296,5.876h-0.002c-2.367,2.938-4.182,5.572-5.713,8.074c-4.427,4.675-8.558,8.213-12.318,10.562
			c-1.337,0.827-3.403,1.803-6.134,2.853c-2.677,1.03-4.772,1.488-6.096,1.488c-1.599,0-2.571-0.324-2.995-0.632
			s-0.583-0.551-0.583-1.439c0-1.965,1.621-6.333,5.214-12.251h0.004l0.002-0.011c3.459-5.765,5.975-9.249,6.926-10.222
			c0.194-0.039,0.215-0.045,0.581-0.105c0.669-0.109,1.607-0.247,2.802-0.417c2.39-0.339,5.812-0.795,10.258-1.368
			c4.509-0.577,7.898-1.093,10.228-1.559c1.165-0.233,2.054-0.443,2.771-0.69c0.122-0.042,0.236-0.116,0.351-0.161L256.876,608.164z
			 M340.591,611.559c0.373,0,0.394,0.034,0.615,0.067c-1.035,2.768-3.474,5.557-7.678,8.25c-2.883,1.83-5.146,2.772-7.082,3.348
			c2.094-2.691,4.504-5.342,7.609-7.904h0.002h0.004c3.246-2.693,5.731-3.76,6.53-3.76l0,0L340.591,611.559z M265.087,614.285
			c1.026,1.495,2.026,2.641,3.027,3.481c-0.16,0.735-0.51,1.759-1.35,3.184c-1.098,1.864-2.816,4.203-5.141,6.951
			c-4.606,5.443-8.347,7.721-10.276,7.721c-0.356,0-0.197,0.064-0.32-0.131c-0.123-0.195-0.35-0.885-0.35-2.047
			c0-1.685,1.912-5.902,6.265-11.522h0.002c2.209-2.804,4.146-4.872,5.717-6.167C263.71,614.889,264.481,614.505,265.087,614.285
			L265.087,614.285z M137.399,619.422v0.011c0.252,1.003,0.534,2.432,0.826,4.481c0.716,4.965,2.085,9.287,3.98,13.079
			c-0.18-0.166-0.433-0.294-0.6-0.467l-0.006-0.011l-0.006-0.01c-3.564-3.63-5.266-7.793-5.266-12.873
			c0-1.537,0.237-2.667,0.574-3.389C137.194,619.613,137.286,619.562,137.399,619.422L137.399,619.422z"/>
		<path style="fill:#3498DB;" d="M201.108,570.203L201.108,570.203c-5.876,0-11.884,0.968-18.003,2.883h-0.002
			c-6.081,1.854-11.301,4.509-15.61,7.986c-5.623,4.5-8.788,9.309-8.788,14.412c0,3.323,1.452,6.389,4.051,8.826l0.011,0.011
			l0.009,0.01c2.652,2.411,6.093,4.085,10.209,5.076h0.011l18.861,4.289c2.794,0.881,4.789,1.923,5.965,2.958
			c1.184,1.041,1.585,1.935,1.585,3.058c0,1.218-0.516,2.885-1.765,4.922l-0.011,0.019l-0.009,0.018
			c-3.063,5.26-8.055,9.364-15.231,12.331c-7.25,2.997-14.598,4.485-22.097,4.485c-3.175,0-6.093-0.3-8.801-0.836
			c-2.152-2.144-3.723-4.662-4.659-7.717l-0.002-0.01l-0.002-0.01c-0.062-0.199-0.375-1.758-0.712-4.066
			c-0.337-2.308-0.759-5.51-1.26-9.594l0.004,0.039c-0.234-2.304-0.732-4.186-1.759-5.664c-1.027-1.478-2.766-2.41-4.56-2.41
			c-4.03,0-7.475,2.503-9.835,6.659c-1.142,1.938-1.662,4.269-1.662,6.885c0,2.794,0.916,5.742,2.597,8.874
			c1.663,3.1,3.516,5.535,5.651,7.259h0.002h0.002c3.242,2.609,7.882,4.258,13.778,5.236c4.353,3.425,8.174,5.418,11.757,5.418
			c0.891,0,1.649-0.055,2.451-0.398c0.802-0.344,1.726-1.419,1.726-2.486c0-0.504-0.262-1.12-0.634-1.535
			c9.907-0.275,18.719-1.983,26.287-5.32h0.004c9.897-4.242,16.368-10.624,18.844-18.981h0.002c0.545-1.867,0.832-3.662,0.832-5.382
			c0-4.288-2.116-7.945-5.851-10.23c-2.868-1.876-6.862-3.187-12.08-4.143h-0.006l-12.632-2.354
			c-3.968-0.934-6.844-2.138-8.57-3.414c-1.729-1.278-2.318-2.422-2.318-3.872c0-1.922,1.303-4.445,4.547-7.418l0.007-0.01
			l0.009-0.011c3.211-3.01,7.194-5.231,12.047-6.666h0.011h0.013c4.925-1.526,9.825-2.285,14.724-2.285
			c4.267,0,7.661,0.507,10.134,1.417c2.453,0.902,3.96,2.139,4.855,3.709c0.668,1.351,0.972,2.55,0.972,3.621
			c0,2.156-0.8,3.433-3.023,4.619c-0.476,0.212-1.836,0.507-3.849,0.574h-0.002c-1.118,0.038-1.989,0.117-2.786,0.336
			c-0.398,0.11-0.792,0.241-1.234,0.576c-0.442,0.335-0.952,1.076-0.952,1.862c0,1.149,0.979,2.275,1.868,2.651
			c0.888,0.376,1.777,0.449,2.845,0.449c2.289,0,4.797-0.617,7.598-1.752c4.872-1.919,7.777-5.823,7.777-10.716
			c0-5.02-3.088-9.113-8.325-11.536l-0.015-0.01l-0.015-0.01c-4.065-1.798-9.061-2.64-14.988-2.64L201.108,570.203z M232.986,592.82
			c-1.508,0-2.073,0.732-2.877,1.494c-0.804,0.761-1.687,1.786-2.726,3.122h-0.004l-0.004,0.01
			c-1.435,1.872-2.674,3.469-3.836,4.958h-5.464l-0.157,0.026c-0.38,0.063-0.652,0.082-0.654,0.082h-0.273l-0.262,0.075
			c-1.061,0.31-2.005,0.758-2.756,1.509c-0.75,0.75-1.208,1.854-1.208,2.915c0,1.228,0.498,2.559,1.505,3.358
			c0.825,0.655,1.818,0.875,2.855,0.953c-1.248,2.379-2.468,4.701-4.367,8.499c-2.652,5.229-4.085,9.422-4.085,12.925
			c0,3.239,0.742,5.93,2.825,7.465l0.045,0.032l0.049,0.03c1.815,1.18,4.041,1.709,6.534,1.709c5.522,0,11.215-1.868,17.029-5.442
			c1.838-1.103,3.537-2.465,5.233-3.832c0.084,1.776,0.559,3.482,1.494,4.984c1.308,2.326,3.544,3.86,6.059,3.86h1.724
			c5.125,0,10.21-4.015,16.019-11.148h0.002c2.446-2.993,4.304-5.58,5.588-7.822c1.24-2.166,1.968-3.986,2.019-5.79
			c2.104-0.909,4.071-1.786,5.35-2.58c0.79-0.49,1.435-0.961,1.97-1.509c0.535-0.548,1.053-1.224,1.112-2.24l0.196-3.348
			l-2.982,1.533c-2.475,1.271-4.282,1.784-4.95,1.812c0.11-0.756,0.308-1.614,0.308-2.262c0-2.24-0.543-4.243-1.896-5.676
			s-3.341-2.055-5.509-2.055c-2.582,0-5.162,1.232-7.897,3.331c-0.662,0.508-1.377,1.247-2.064,1.866
			c0.109-0.243,0.258-0.436,0.258-0.806c0-0.993-0.437-1.284-0.641-1.488c-0.204-0.204-0.366-0.315-0.535-0.428l-0.494-0.329
			l-16.074,0.224c-1.362,0-2.168-0.032-3.29-0.047c0.418-0.516,1.065-1.231,1.385-1.666c0.461-0.625,0.824-1.163,1.105-1.673
			c0.281-0.51,0.561-0.912,0.561-1.806c0-1.66-1.23-2.989-2.628-3.735c-1.233-0.657-2.365-1.086-3.593-1.086l0,0L232.986,592.82z
			 M294.378,593.897c-2.049,0-3.8,1.336-5.038,3.193c-1.195,1.792-2.127,4.222-2.961,7.298c-2.475,4.789-6.784,10.808-12.94,17.954
			c-1.319,1.474-2.296,2.582-2.296,4.373c0,0.542,0.279,1.356,0.854,1.817c0.576,0.461,1.164,0.527,1.598,0.527
			c0.704,0,1.028-0.22,1.322-0.391s0.538-0.357,0.796-0.574c0.517-0.433,1.081-0.991,1.757-1.714
			c1.353-1.447,3.128-3.543,5.369-6.326l0.013-0.017l6.343-8.229c0.266,0.313,0.514,0.65,0.821,0.91
			c0.491,0.417,1.051,0.748,1.647,0.983c-1.257,1.993-2.461,4.144-3.559,6.64c-1.659,3.77-2.531,7.329-2.531,10.678
			c0,3.267,0.741,6.026,2.513,7.986c1.772,1.961,4.433,2.866,7.478,2.866c4.399,0,9.315-2.38,15.145-6.734l0.019-0.015l0.021-0.015
			c0.083-0.065,0.144-0.138,0.226-0.204c0.325,1.464,0.859,2.846,1.845,3.956c1.454,1.635,3.519,2.742,6.031,3.457
			c0.858,0.281,1.771,0.415,2.722,0.415c4.467,0,9.387-2.213,15.014-6.285c5.598-4.051,10.404-8.708,14.399-13.959l0.013-0.017
			l0.013-0.017c0.672-0.924,1.226-1.674,1.226-2.956c0-0.588-0.252-1.421-0.856-1.939c-0.604-0.518-1.287-0.623-1.811-0.623
			c-0.853,0-1.458,0.371-1.922,0.742s-0.84,0.804-1.224,1.316l0.022-0.03c-2.986,3.82-6.612,7.448-10.89,10.884l-0.019,0.017
			l-0.021,0.018c-5.519,4.681-9.918,6.76-12.653,6.76c-1.42,0-2.12-0.329-2.563-0.798c-0.443-0.47-0.798-1.321-0.798-2.887
			c0-1.418,0.355-2.745,0.905-4.053c0.104,0,0.198,0.045,0.303,0.045c4.416,0,9.559-2.016,15.737-5.765h0.006
			c6.363-3.819,10.076-8.172,10.076-13.159c0-1.801-0.881-3.518-2.29-4.672c-1.383-1.255-3.238-1.873-5.223-1.873
			c-5.864,0-11.905,3.709-18.397,10.497c-4.141,4.329-6.919,8.387-8.499,12.286c-1.602,1.519-3.269,2.973-5.081,4.287h-0.004h-0.002
			c-4.641,3.394-8.417,4.907-11.039,4.907c-1.238,0-1.801-0.279-2.155-0.658c-0.355-0.379-0.667-1.1-0.667-2.488
			c0-2.593,2.002-7.072,6.478-12.81h0.002c0.003,0,0.003-0.01,0.006-0.01l7.609-9.592l0.105-0.282
			c0.528-1.409-0.128-2.907-1.015-3.892c-0.835-0.927-1.881-1.709-3.253-1.709c-0.327,0-0.61,0.01-0.89,0.035
			c-0.28,0.028-0.515,0.01-1.043,0.273l-0.075,0.037l-2.847,1.752c-1.381,0.815-2.499,1.131-3.33,1.131
			c-0.671,0-0.87-0.103-1.071-0.176l1.808-2.414l0.041-0.055c1.895-2.359,3.075-4.423,3.075-6.638c0-1.085-0.387-2.287-1.277-3.06
			C296.604,594.13,295.482,593.896,294.378,593.897L294.378,593.897L294.378,593.897z M255.409,607.035L255.409,607.035
			c-1.689,1.673-3.432,3.567-5.296,5.876h-0.002c-2.367,2.938-4.182,5.572-5.713,8.074c-4.427,4.675-8.558,8.213-12.318,10.562
			c-1.337,0.827-3.403,1.803-6.134,2.853c-2.677,1.03-4.772,1.488-6.096,1.488c-1.599,0-2.571-0.324-2.995-0.632
			c-0.424-0.308-0.583-0.551-0.583-1.44c0-1.965,1.621-6.333,5.214-12.251h0.004l0.002-0.011c3.459-5.765,5.975-9.249,6.926-10.222
			c0.194-0.039,0.215-0.045,0.581-0.105c0.669-0.109,1.607-0.247,2.802-0.417c2.39-0.339,5.812-0.795,10.258-1.368
			c4.509-0.577,7.898-1.093,10.228-1.559c1.165-0.233,2.054-0.443,2.771-0.69c0.122-0.042,0.236-0.116,0.351-0.161L255.409,607.035z
			 M339.124,610.43c0.373,0,0.394,0.034,0.615,0.067c-1.035,2.768-3.474,5.557-7.678,8.25c-2.883,1.83-5.146,2.772-7.082,3.348
			c2.094-2.691,4.504-5.342,7.609-7.904h0.002h0.004c3.246-2.693,5.731-3.76,6.53-3.76l0,0L339.124,610.43z M263.62,613.156
			c1.026,1.495,2.027,2.641,3.027,3.481c-0.16,0.735-0.51,1.759-1.35,3.184c-1.098,1.864-2.816,4.203-5.141,6.951
			c-4.606,5.443-8.347,7.721-10.276,7.721c-0.356,0-0.197,0.064-0.32-0.131c-0.123-0.195-0.35-0.885-0.35-2.047
			c0-1.685,1.912-5.902,6.265-11.522h0.002c2.209-2.804,4.146-4.872,5.717-6.167C262.242,613.76,263.014,613.376,263.62,613.156
			L263.62,613.156z M135.931,618.293v0.011c0.252,1.003,0.534,2.432,0.826,4.481c0.716,4.965,2.085,9.287,3.98,13.079
			c-0.18-0.166-0.433-0.294-0.6-0.467l-0.006-0.011l-0.006-0.01c-3.564-3.63-5.266-7.793-5.266-12.873
			c0-1.537,0.237-2.667,0.574-3.389C135.727,618.484,135.819,618.434,135.931,618.293L135.931,618.293z"/>
	</g>
</g>
<g>
</g>
<g>
</g>
<g>
</g>
<g>
</g>
<g>
</g>
<g>
</g>
<g>
</g>
<g>
</g>
<g>
</g>
<g>
</g>
<g>
</g>
<g>
</g>
<g>
</g>
<g>
</g>
<g>
</g>
</svg>
